<svg width="12" height="10" fill="none" xmlns="http://www.w3.org/2000/svg"><path d="M.675 4.059l-.02.004h8.03l-2.524-2.53a.657.657 0 01-.191-.466c0-.176.068-.342.191-.466l.393-.393a.651.651 0 01.464-.192c.175 0 .34.068.464.192l4.327 4.327a.65.65 0 01.191.464.65.65 0 01-.191.466L7.482 9.792a.651.651 0 01-.464.192.652.652 0 01-.464-.192L6.161 9.4a.65.65 0 010-.918l2.553-2.544H.666A.68.68 0 010 5.264v-.556c0-.362.313-.649.675-.649z" fill="url(#paint0_linear)"/><defs><linearGradient id="paint0_linear" x1="12" y1="5" x2="0" y2="5" gradientUnits="userSpaceOnUse"><stop stop-color="#2EBB90"/><stop offset="1" stop-color="#4DDF9A"/></linearGradient></defs></svg>