
<svg viewBox="0 0 512 512" xmlns="http://www.w3.org/2000/svg"><path d="m511.914062 256c0-141.386719-114.59375-256-255.957031-256-141.359375 0-255.957031 114.613281-255.957031 256s114.597656 256 255.957031 256c141.363281 0 255.957031-114.613281 255.957031-256zm0 0" fill="#67708d"/><path d="m415.089844 55.492188c34.726562 43.699218 55.484375 99 55.484375 159.160156 0 141.382812-114.597657 256-255.957031 256-60.148438 0-115.441407-20.761719-159.132813-55.492188 46.890625 59 119.257813 96.839844 200.472656 96.839844 141.363281 0 255.957031-114.613281 255.957031-256 0-81.226562-37.828124-153.609375-96.824218-200.507812zm0 0" fill="#58637f"/><path d="m198.265625 269.25 20.753906-20.757812v99.859374c0 20.417969 16.546875 36.96875 36.960938 36.96875 20.414062 0 36.960937-16.550781 36.960937-36.96875v-100.773437l20.675782 20.675781c14.433593 14.4375 37.835937 14.4375 52.273437 0 14.433594-14.4375 14.433594-37.84375 0-52.28125l-57.179687-57.1875-21.570313-21.574218c-16.957031-16.957032-44.445313-16.957032-61.402344 0l-21.570312 21.574218-58.175781 58.183594c-14.390626 14.394531-14.390626 37.730469 0 52.125l.160156.15625c14.390625 14.394531 37.722656 14.394531 52.113281 0zm0 0" fill="#d6ddea"/><g fill="#bac5d6"><path d="m290.675781 245.503906c-7.628906-7.632812-20.675781-2.226562-20.675781 8.5625v94.289063c0 16.410156-10.695312 30.316406-25.488281 35.140625 3.609375 1.179687 7.464843 1.824218 11.46875 1.824218 20.414062 0 36.960937-16.550781 36.960937-36.964843v-100.777344c-.773437-.660156-1.535156-1.34375-2.265625-2.074219zm0 0"/><path d="m365.890625 215.972656-57.179687-57.1875-21.570313-21.574218c-11.421875-11.425782-27.625-15.140626-42.171875-11.171876 7.042969 1.925782 13.699219 5.640626 19.230469 11.171876l21.574219 21.574218 57.175781 57.1875c14.433593 14.4375 14.433593 37.84375 0 52.28125-4.261719 4.261719-9.304688 7.253906-14.664063 9 12.804688 4.167969 27.429688 1.175782 37.605469-9 14.433594-14.4375 14.433594-37.84375 0-52.28125zm0 0"/></g></svg>