<svg id="Capa_1" enable-background="new 0 0 512 512" height="512" viewBox="0 0 512 512" width="512" xmlns="http://www.w3.org/2000/svg" xmlns:xlink="http://www.w3.org/1999/xlink"><linearGradient id="SVGID_1_" gradientUnits="userSpaceOnUse" x1="256" x2="256" y1="512" y2="0"><stop offset="0" stop-color="#00b59c"/><stop offset="1" stop-color="#9cffac"/></linearGradient><linearGradient id="SVGID_2_" gradientUnits="userSpaceOnUse" x1="256" x2="256" y1="451" y2="61"><stop offset="0" stop-color="#c3ffe8"/><stop offset=".9973" stop-color="#f0fff4"/></linearGradient><g id="Information_2_"><g><g><circle cx="256" cy="256" fill="url(#SVGID_1_)" r="256"/></g></g><g><g><path d="m256 61c-107.4 0-195 87.599-195 195s87.6 195 195 195 195-87.6 195-195-87.599-195-195-195zm45 315c0 8.401-6.599 15-15 15h-60c-8.401 0-15-6.599-15-15v-120c0-8.401 6.599-15 15-15h60c8.401 0 15 6.599 15 15zm-45-165c-24.9 0-45-20.099-45-45s20.099-45 45-45 45 20.099 45 45-20.099 45-45 45z" fill="url(#SVGID_2_)"/></g></g></g></svg>