
<svg viewBox="0 0 512 512" xmlns="http://www.w3.org/2000/svg"><path d="m511.914062 256c0-141.386719-114.59375-256-255.957031-256-141.359375 0-255.957031 114.613281-255.957031 256s114.597656 256 255.957031 256c141.363281 0 255.957031-114.613281 255.957031-256zm0 0" fill="#66d15f"/><path d="m412.066406 53.132812c33.304688 43.210938 53.125 97.355469 53.125 156.132813 0 141.386719-114.597656 256-255.960937 256-58.769531 0-112.902344-19.824219-156.109375-53.132813 46.804687 60.730469 120.246094 99.867188 202.835937 99.867188 141.363281 0 255.957031-114.613281 255.957031-256 0-82.605469-39.128906-156.058594-99.847656-202.867188zm0 0" fill="#53bc77"/><path d="m313.648438 241.65625-20.753907 20.757812v-99.859374c0-20.417969-16.546875-36.96875-36.960937-36.96875-20.414063 0-36.960938 16.550781-36.960938 36.96875v100.773437l-20.675781-20.675781c-14.433594-14.4375-37.835937-14.4375-52.269531 0-14.4375 14.4375-14.4375 37.84375 0 52.28125l57.175781 57.1875 21.570313 21.574218c16.957031 16.957032 44.445312 16.957032 61.402343 0l21.570313-21.574218 58.175781-58.183594c14.390625-14.390625 14.390625-37.730469 0-52.121094l-.15625-.160156c-14.394531-14.390625-37.726563-14.390625-52.117187 0zm0 0" fill="#d4ffdf"/><g fill="#b1ffc5"><path d="m263.195312 162.554688v97.851562c0 10.832031 13.09375 16.257812 20.753907 8.597656 2.703125-2.707031 5.726562-4.902344 8.949219-6.59375v-99.855468c0-20.417969-16.550782-36.96875-36.964844-36.96875-5.28125 0-10.304688 1.117187-14.847656 3.113281 13.015624 5.722656 22.109374 18.722656 22.109374 33.855469zm0 0"/><path d="m365.921875 241.816406-.15625-.160156c-11.0625-11.0625-27.402344-13.609375-40.910156-7.667969 4.066406 1.789063 7.878906 4.339844 11.207031 7.667969l.15625.160156c14.390625 14.390625 14.390625 37.730469 0 52.121094l-58.171875 58.183594-21.570313 21.574218c-4.640624 4.636719-10.070312 8-15.851562 10.101563 15.359375 5.578125 33.234375 2.21875 45.550781-10.101563l21.570313-21.574218 58.175781-58.183594c14.390625-14.394531 14.390625-37.730469 0-52.121094zm0 0"/></g></svg>